<svg width="11" height="17" viewBox="0 0 11 17" fill="none" xmlns="http://www.w3.org/2000/svg">
<path d="M10.4029 1.00781C10.5145 1.11942 10.5703 1.24777 10.5703 1.39286C10.5703 1.53795 10.5145 1.66629 10.4029 1.7779L3.82367 8.35714L10.4029 14.9364C10.5145 15.048 10.5703 15.1763 10.5703 15.3214C10.5703 15.4665 10.5145 15.5949 10.4029 15.7065L9.56586 16.5435C9.45425 16.6551 9.3259 16.7109 9.18081 16.7109C9.03573 16.7109 8.90738 16.6551 8.79577 16.5435L0.994431 8.74219C0.882824 8.63058 0.82702 8.50223 0.82702 8.35714C0.82702 8.21205 0.882824 8.0837 0.994431 7.9721L8.79577 0.170758C8.90738 0.0591503 9.03573 0.00334668 9.18081 0.00334668C9.3259 0.00334668 9.45425 0.0591503 9.56586 0.170758L10.4029 1.00781Z" fill="white"/>
</svg>
